<svg width="23" height="23" viewBox="0 0 23 23" fill="none" xmlns="http://www.w3.org/2000/svg">
<path d="M19.55 2.3H18.4V1.15C18.4 0.46 17.94 0 17.25 0C16.56 0 16.1 0.46 16.1 1.15V2.3H6.9V1.15C6.9 0.46 6.44 0 5.75 0C5.06 0 4.6 0.46 4.6 1.15V2.3H3.45C1.495 2.3 0 3.795 0 5.75V6.9H23V5.75C23 3.795 21.505 2.3 19.55 2.3ZM0 19.55C0 21.505 1.495 23 3.45 23H19.55C21.505 23 23 21.505 23 19.55V9.2H0V19.55ZM17.25 11.5C17.94 11.5 18.4 11.96 18.4 12.65C18.4 13.34 17.94 13.8 17.25 13.8C16.56 13.8 16.1 13.34 16.1 12.65C16.1 11.96 16.56 11.5 17.25 11.5ZM17.25 16.1C17.94 16.1 18.4 16.56 18.4 17.25C18.4 17.94 17.94 18.4 17.25 18.4C16.56 18.4 16.1 17.94 16.1 17.25C16.1 16.56 16.56 16.1 17.25 16.1ZM11.5 11.5C12.19 11.5 12.65 11.96 12.65 12.65C12.65 13.34 12.19 13.8 11.5 13.8C10.81 13.8 10.35 13.34 10.35 12.65C10.35 11.96 10.81 11.5 11.5 11.5ZM11.5 16.1C12.19 16.1 12.65 16.56 12.65 17.25C12.65 17.94 12.19 18.4 11.5 18.4C10.81 18.4 10.35 17.94 10.35 17.25C10.35 16.56 10.81 16.1 11.5 16.1ZM5.75 11.5C6.44 11.5 6.9 11.96 6.9 12.65C6.9 13.34 6.44 13.8 5.75 13.8C5.06 13.8 4.6 13.34 4.6 12.65C4.6 11.96 5.06 11.5 5.75 11.5ZM5.75 16.1C6.44 16.1 6.9 16.56 6.9 17.25C6.9 17.94 6.44 18.4 5.75 18.4C5.06 18.4 4.6 17.94 4.6 17.25C4.6 16.56 5.06 16.1 5.75 16.1Z" fill="white"/>
</svg>
