<svg width="24" height="23" viewBox="0 0 24 23" fill="none" xmlns="http://www.w3.org/2000/svg">
<path d="M15.2128 12.238C16.8357 12.238 18.3921 11.5933 19.5396 10.4458C20.6871 9.29818 21.3318 7.74181 21.3318 6.119C21.3318 4.4962 20.6871 2.93983 19.5396 1.79217C18.3921 0.644681 16.8357 0 15.2128 0C13.59 0 12.0336 0.644681 10.8861 1.79217C9.73843 2.93983 9.09375 4.4962 9.09375 6.119C9.09375 7.74181 9.73843 9.29818 10.8861 10.4458C12.0336 11.5933 13.59 12.238 15.2128 12.238ZM13.5837 7.10548C13.8367 7.07082 14.0782 7.22209 14.1573 7.46504C14.2101 7.64175 14.2985 7.80582 14.4173 7.94682C14.6106 8.16587 14.8902 8.28897 15.1822 8.28333C15.3898 8.2905 15.5956 8.24304 15.7789 8.14572C15.8366 8.1138 15.8906 8.07538 15.9394 8.03099C16.097 7.90124 16.196 7.71412 16.2148 7.51096C16.238 7.3445 16.2057 7.17514 16.1231 7.02901C16.0512 6.91974 15.9507 6.83249 15.8323 6.77667H15.7787C15.6258 6.70786 15.3198 6.60832 14.8686 6.47072L14.3868 6.30237C14.2046 6.2334 14.0324 6.14086 13.8742 6.02698C13.6639 5.84464 13.501 5.61347 13.4001 5.35398C13.2768 5.08798 13.2142 4.79807 13.2166 4.50493C13.2099 4.17337 13.2917 3.84591 13.4535 3.55652C13.605 3.28164 13.8373 3.06005 14.1191 2.92176C14.2143 2.87157 14.3142 2.83059 14.4173 2.79935V2.40154C14.4173 2.15296 14.55 1.92317 14.7655 1.79887C14.9807 1.6744 15.2461 1.6744 15.4614 1.79887C15.6768 1.92316 15.8095 2.15296 15.8095 2.40154V2.79166C16.1103 2.86081 16.3876 3.00866 16.6126 3.22003C16.8298 3.43037 16.988 3.69417 17.0715 3.98491C17.1103 4.14078 17.0782 4.30571 16.9838 4.43561C16.8894 4.56554 16.7422 4.64681 16.582 4.6579C16.3439 4.67754 16.1231 4.53242 16.0466 4.30603C16.0082 4.17969 15.9399 4.06427 15.8477 3.96952C15.6362 3.82901 15.3782 3.77676 15.1288 3.82422C14.8935 3.80801 14.6596 3.86981 14.4633 4.00008L14.4096 4.046C14.2908 4.14691 14.2235 4.29561 14.2261 4.45149C14.2273 4.60856 14.2939 4.75829 14.4096 4.86449C14.7079 5.05075 15.0369 5.18273 15.3811 5.25461L15.7712 5.37702V5.37685C16.0424 5.46222 16.3 5.58582 16.5361 5.74409C16.7755 5.91312 16.9655 6.14275 17.0867 6.40945C17.2214 6.72069 17.2867 7.05736 17.278 7.39627C17.2923 7.917 17.106 8.42356 16.7579 8.81129C16.4952 9.08702 16.1479 9.26733 15.7713 9.32367V9.83622C15.7713 10.0848 15.6386 10.3146 15.4232 10.4389C15.2079 10.5634 14.9426 10.5634 14.7273 10.4389C14.5118 10.3146 14.3791 10.0848 14.3791 9.83622V9.27777C14.0433 9.16731 13.7447 8.96585 13.5166 8.69577C13.2884 8.42567 13.1395 8.09768 13.0866 7.74802C13.0577 7.59556 13.0956 7.43797 13.1907 7.31505C13.2858 7.1923 13.4289 7.11598 13.5837 7.10556L13.5837 7.10548Z" fill="white"/>
<path d="M23.359 13.3233C23.2403 12.9504 23.009 12.6234 22.6966 12.3879C22.3841 12.1523 22.0063 12.0193 21.6152 12.0076C21.403 12.0035 21.1923 12.0426 20.9956 12.1224L12.5133 14.8605H12.4063C12.2547 14.8583 12.1143 14.78 12.0327 14.6522C11.9511 14.5245 11.9392 14.3642 12.0008 14.2258C12.1369 13.9581 12.2077 13.6619 12.2074 13.3615C12.2053 12.9101 12.045 12.4738 11.7543 12.1285C11.4635 11.7833 11.0609 11.5511 10.6165 11.4722C9.55099 11.2947 8.4643 11.6324 7.68696 12.3824L5.62949 14.8759H4.53581C4.45369 14.5734 4.27442 14.3064 4.02566 14.1156C3.7769 13.9249 3.47232 13.8211 3.15903 13.8204H1.43806C1.05802 13.8204 0.693335 13.9708 0.423924 14.2389C0.154509 14.5068 0.00204987 14.8706 0 15.2506V21.5611C0 21.9425 0.151611 22.3082 0.421193 22.578C0.690949 22.8475 1.05665 22.9991 1.43808 22.9991H3.15905C3.53774 22.9971 3.90037 22.8457 4.16808 22.578C4.43595 22.3101 4.58722 21.9474 4.58927 21.5688H14.617C15.2687 21.5667 15.8992 21.3367 16.3991 20.9186L22.8699 15.4421C23.1598 15.1824 23.3625 14.8396 23.4501 14.4602C23.5376 14.081 23.5061 13.6839 23.3594 13.3235L23.359 13.3233ZM1.52945 15.3502H3.0592V21.4692H1.52945V15.3502Z" fill="white"/>
</svg>
