<svg width="25" height="23" viewBox="0 0 25 23" fill="none" xmlns="http://www.w3.org/2000/svg">
<path d="M8.19245 12.9907L10.3187 14.2613C10.7595 14.5207 11.2781 14.6762 11.7968 14.6762H22.9982C23.4909 14.6762 23.9058 14.2874 23.9058 13.7686C23.9058 13.3278 23.5687 12.9388 23.1279 12.8871L14.2083 11.6425C13.8453 11.5906 13.5081 11.5128 13.1712 11.3831L12.7823 11.2276C12.9379 10.5794 13.0156 9.74953 12.6268 9.12737C12.2119 8.42723 12.3674 7.54569 12.4712 7.1568H13.4047C13.7677 7.1568 14.0529 6.87156 14.0529 6.50857L14.0525 3.44864C14.0525 3.08564 13.7673 2.80041 13.4043 2.80041H12.782V2.72264C12.782 1.81503 13.5338 1.06317 14.4414 1.06317C15.349 1.06317 16.1009 1.81503 16.1009 2.72264V10.8125L17.164 10.9681V2.72261C17.164 1.21872 15.9454 0 14.4414 0C12.9375 0 11.693 1.21867 11.693 2.72261V2.80039H11.0706C10.7076 2.80039 10.4224 3.08562 10.4224 3.44862V6.48233C10.4224 6.84533 10.7076 7.13056 11.0706 7.13056H11.8225C11.6928 7.67517 11.5892 8.60862 12.0819 9.43826C12.3152 9.85317 12.2893 10.4495 12.1855 10.968L9.64448 9.98268C9.09987 9.77522 8.47771 9.853 8.01089 10.242C7.10346 10.9682 7.18125 12.3944 8.19249 12.9907L8.19245 12.9907ZM11.33 5.18604V4.74509C11.33 4.69318 11.3819 4.64145 11.4336 4.64145H11.9782V4.09685C11.9782 4.04494 12.0301 3.99321 12.0819 3.99321H12.5226C12.5745 3.99321 12.6263 4.04512 12.6263 4.09685V4.64145H13.1192C13.1711 4.64145 13.2228 4.69336 13.2228 4.74509V5.18586C13.2228 5.23777 13.1709 5.2895 13.1192 5.2895H12.5745V5.83411C12.5745 5.88601 12.5226 5.93774 12.4709 5.93774H12.0301C11.9782 5.93774 11.9265 5.88583 11.9265 5.83411L11.9263 5.26385H11.3817C11.3558 5.26385 11.33 5.2378 11.33 5.18607L11.33 5.18604Z" fill="white"/>
<path d="M7.44067 9.10217C7.44067 10.2621 6.50032 11.2024 5.34045 11.2024C4.18058 11.2024 3.24023 10.262 3.24023 9.10217C3.24023 7.9423 4.18058 7.00195 5.34045 7.00195C6.50032 7.00195 7.44067 7.9423 7.44067 9.10217Z" fill="white"/>
<path d="M23.9068 15.7133H11.6423C10.9421 15.7133 10.268 15.5318 9.67168 15.1948L2.28186 10.9164V9.59406C2.28186 8.97171 1.76332 8.45312 1.14093 8.45312C0.518538 8.45312 0 8.97166 0 9.59406L0.000180868 21.8586C0.000180868 22.4809 0.518718 22.9995 1.14111 22.9995C1.76346 22.9995 2.28204 22.481 2.28204 21.8586L2.28186 19.1101H22.377V21.8586C22.377 22.4809 22.8955 22.9995 23.5179 22.9995C24.1403 22.9995 24.6588 22.481 24.6588 21.8586V16.4653C24.6588 16.0504 24.3217 15.7134 23.907 15.7134L23.9068 15.7133Z" fill="white"/>
</svg>
