<svg width="24" height="23" viewBox="0 0 24 23" fill="none" xmlns="http://www.w3.org/2000/svg">
<path fill-rule="evenodd" clip-rule="evenodd" d="M23.0153 6.33008C22.6326 7.27753 18.7263 11.0209 17.8493 11.2502L7.92263 13.8635L7.01562 10.5377L23.0153 6.3303L23.0153 6.33008ZM11.6118 10.3618C11.8963 10.0775 12.3602 10.0792 12.6481 10.3646C12.9341 10.6484 12.9343 11.1072 12.6505 11.3891C12.3653 11.6738 11.8991 11.6718 11.6137 11.3878C11.3282 11.1018 11.3271 10.6426 11.6118 10.3615L11.6118 10.3618Z" fill="white"/>
<path fill-rule="evenodd" clip-rule="evenodd" d="M7.3361 11.7078L7.60453 12.6908L5.54736 13.2311C5.65161 14.5253 4.81528 15.7474 3.50368 16.0919C2.0234 16.4798 0.498182 15.6062 0.0970404 14.1368C-0.303477 12.6679 0.572267 11.16 2.05211 10.7725C3.36454 10.4272 4.70973 11.0731 5.27895 12.2468L7.33612 11.7075L7.3361 11.7078ZM4.5498 13.2831C4.58983 14.1246 4.07993 14.9083 3.2502 15.1258C2.30615 15.3734 1.31869 14.8197 1.06053 13.8739C0.804716 12.9365 1.36921 11.9845 2.30555 11.7388C3.09928 11.5305 4.00503 11.8719 4.35718 12.6334C4.4229 12.8048 4.53464 13.1174 4.54962 13.2829L4.5498 13.2831Z" fill="white"/>
<path fill-rule="evenodd" clip-rule="evenodd" d="M16.6299 0.000164312C15.6715 0.37863 11.8939 4.24936 11.661 5.11889L10.5365 9.2386L14.4027 8.22177L16.6301 0L16.6299 0.000164312ZM9.30795 13.8692L9.02539 14.9536L12.3819 15.8529L13.1712 12.8519L9.30794 13.8689L9.30795 13.8692Z" fill="white"/>
<path fill-rule="evenodd" clip-rule="evenodd" d="M10.221 15.2754L11.2066 15.5344L10.6459 17.5861C11.819 18.1428 12.4591 19.4782 12.1016 20.7863C11.6972 22.2623 10.1782 23.1462 8.70517 22.7592C7.23284 22.3717 6.36479 20.8591 6.76917 19.384C7.12623 18.0747 8.35839 17.2326 9.65947 17.3266L10.2212 15.2754L10.221 15.2754ZM10.1921 18.4759C10.9409 18.8618 11.3646 19.6954 11.1383 20.5228C10.8808 21.4643 9.90765 22.0424 8.95932 21.7931C8.0196 21.5458 7.47756 20.5811 7.73271 19.6475C7.94913 18.8559 8.6977 18.2424 9.53319 18.318C9.71451 18.3466 10.041 18.4064 10.1919 18.4759L10.1921 18.4759Z" fill="white"/>
</svg>
